<mxfile host="Electron" agent="Mozilla/5.0 (Windows NT 10.0; Win64; x64) AppleWebKit/537.36 (KHTML, like Gecko) draw.io/27.0.9 Chrome/134.0.6998.205 Electron/35.4.0 Safari/537.36" version="27.0.9">
  <diagram name="Page-1" id="dZscK0u9I_Esz3ljqFXW">
    <mxGraphModel dx="3021" dy="2475" grid="1" gridSize="10" guides="1" tooltips="1" connect="1" arrows="1" fold="1" page="1" pageScale="1" pageWidth="827" pageHeight="1169" math="0" shadow="0">
      <root>
        <mxCell id="0" />
        <mxCell id="1" parent="0" />
        <mxCell id="sOHyvGYPSxtJgD_jjgVX-2" value="&lt;font style=&quot;font-size: 18px;&quot;&gt;&lt;b&gt;&lt;i&gt;USER&lt;/i&gt;&lt;/b&gt;&lt;/font&gt;" style="text;html=1;align=center;verticalAlign=middle;whiteSpace=wrap;rounded=0;" vertex="1" parent="1">
          <mxGeometry x="40" y="30" width="120" height="80" as="geometry" />
        </mxCell>
        <mxCell id="sOHyvGYPSxtJgD_jjgVX-3" value="&lt;font style=&quot;font-size: 18px;&quot;&gt;&lt;b&gt;&lt;i&gt;ADMIN&lt;/i&gt;&lt;/b&gt;&lt;/font&gt;" style="text;html=1;align=center;verticalAlign=middle;whiteSpace=wrap;rounded=0;" vertex="1" parent="1">
          <mxGeometry x="40" y="330" width="120" height="80" as="geometry" />
        </mxCell>
        <mxCell id="sOHyvGYPSxtJgD_jjgVX-4" value="&lt;font style=&quot;font-size: 18px;&quot;&gt;&lt;b&gt;&lt;i&gt;SUPER ADMIN&lt;/i&gt;&lt;/b&gt;&lt;/font&gt;" style="text;html=1;align=center;verticalAlign=middle;whiteSpace=wrap;rounded=0;" vertex="1" parent="1">
          <mxGeometry x="10" y="680" width="180" height="80" as="geometry" />
        </mxCell>
        <mxCell id="sOHyvGYPSxtJgD_jjgVX-5" value="DATA FLOW DIAGRAM" style="rounded=1;whiteSpace=wrap;html=1;" vertex="1" parent="1">
          <mxGeometry x="-20" y="-130" width="240" height="80" as="geometry" />
        </mxCell>
        <mxCell id="sOHyvGYPSxtJgD_jjgVX-69" style="edgeStyle=orthogonalEdgeStyle;rounded=0;orthogonalLoop=1;jettySize=auto;html=1;entryX=0;entryY=0.5;entryDx=0;entryDy=0;" edge="1" parent="1" source="sOHyvGYPSxtJgD_jjgVX-9" target="sOHyvGYPSxtJgD_jjgVX-68">
          <mxGeometry relative="1" as="geometry" />
        </mxCell>
        <mxCell id="sOHyvGYPSxtJgD_jjgVX-84" style="edgeStyle=orthogonalEdgeStyle;rounded=0;orthogonalLoop=1;jettySize=auto;html=1;exitX=0.918;exitY=1.006;exitDx=0;exitDy=0;exitPerimeter=0;entryX=0;entryY=0.5;entryDx=0;entryDy=0;" edge="1" parent="1" source="sOHyvGYPSxtJgD_jjgVX-9" target="sOHyvGYPSxtJgD_jjgVX-83">
          <mxGeometry relative="1" as="geometry" />
        </mxCell>
        <mxCell id="sOHyvGYPSxtJgD_jjgVX-85" style="edgeStyle=orthogonalEdgeStyle;rounded=0;orthogonalLoop=1;jettySize=auto;html=1;entryX=0.956;entryY=1.006;entryDx=0;entryDy=0;entryPerimeter=0;exitX=-0.006;exitY=0.408;exitDx=0;exitDy=0;exitPerimeter=0;" edge="1" parent="1" source="sOHyvGYPSxtJgD_jjgVX-83" target="sOHyvGYPSxtJgD_jjgVX-9">
          <mxGeometry relative="1" as="geometry">
            <mxPoint x="171.49" y="482.27" as="targetPoint" />
            <mxPoint x="219" y="520" as="sourcePoint" />
            <Array as="points">
              <mxPoint x="170" y="523" />
              <mxPoint x="170" y="483" />
            </Array>
          </mxGeometry>
        </mxCell>
        <mxCell id="sOHyvGYPSxtJgD_jjgVX-117" style="edgeStyle=orthogonalEdgeStyle;rounded=0;orthogonalLoop=1;jettySize=auto;html=1;entryX=0.5;entryY=0;entryDx=0;entryDy=0;" edge="1" parent="1" source="sOHyvGYPSxtJgD_jjgVX-9" target="sOHyvGYPSxtJgD_jjgVX-116">
          <mxGeometry relative="1" as="geometry" />
        </mxCell>
        <mxCell id="sOHyvGYPSxtJgD_jjgVX-9" value="Admin Dashboard&lt;div&gt;( Control Panel )&lt;/div&gt;" style="shape=cube;whiteSpace=wrap;html=1;boundedLbl=1;backgroundOutline=1;darkOpacity=0.05;darkOpacity2=0.1;" vertex="1" parent="1">
          <mxGeometry x="40" y="392" width="135" height="90" as="geometry" />
        </mxCell>
        <mxCell id="sOHyvGYPSxtJgD_jjgVX-27" style="edgeStyle=orthogonalEdgeStyle;rounded=0;orthogonalLoop=1;jettySize=auto;html=1;exitX=0;exitY=0;exitDx=135;exitDy=55;exitPerimeter=0;entryX=0;entryY=0.5;entryDx=0;entryDy=0;" edge="1" parent="1" source="sOHyvGYPSxtJgD_jjgVX-10" target="sOHyvGYPSxtJgD_jjgVX-30">
          <mxGeometry relative="1" as="geometry">
            <mxPoint x="250" y="145" as="targetPoint" />
          </mxGeometry>
        </mxCell>
        <mxCell id="sOHyvGYPSxtJgD_jjgVX-50" style="edgeStyle=orthogonalEdgeStyle;rounded=0;orthogonalLoop=1;jettySize=auto;html=1;exitX=0.841;exitY=1.006;exitDx=0;exitDy=0;exitPerimeter=0;entryX=0.417;entryY=0.007;entryDx=0;entryDy=0;entryPerimeter=0;" edge="1" parent="1" source="sOHyvGYPSxtJgD_jjgVX-10" target="sOHyvGYPSxtJgD_jjgVX-44">
          <mxGeometry relative="1" as="geometry" />
        </mxCell>
        <mxCell id="sOHyvGYPSxtJgD_jjgVX-58" style="edgeStyle=orthogonalEdgeStyle;rounded=0;orthogonalLoop=1;jettySize=auto;html=1;exitX=0.939;exitY=0.134;exitDx=0;exitDy=0;exitPerimeter=0;entryX=0;entryY=0.5;entryDx=0;entryDy=0;" edge="1" parent="1" source="sOHyvGYPSxtJgD_jjgVX-10" target="sOHyvGYPSxtJgD_jjgVX-57">
          <mxGeometry relative="1" as="geometry" />
        </mxCell>
        <mxCell id="sOHyvGYPSxtJgD_jjgVX-10" value="User Side&lt;div&gt;( Landing Page )&lt;/div&gt;" style="shape=cube;whiteSpace=wrap;html=1;boundedLbl=1;backgroundOutline=1;darkOpacity=0.05;darkOpacity2=0.1;" vertex="1" parent="1">
          <mxGeometry x="40" y="91" width="135" height="90" as="geometry" />
        </mxCell>
        <mxCell id="sOHyvGYPSxtJgD_jjgVX-128" style="edgeStyle=orthogonalEdgeStyle;rounded=0;orthogonalLoop=1;jettySize=auto;html=1;exitX=0;exitY=0;exitDx=135;exitDy=55;exitPerimeter=0;entryX=-0.001;entryY=0.513;entryDx=0;entryDy=0;entryPerimeter=0;" edge="1" parent="1" source="sOHyvGYPSxtJgD_jjgVX-11" target="sOHyvGYPSxtJgD_jjgVX-127">
          <mxGeometry relative="1" as="geometry" />
        </mxCell>
        <mxCell id="sOHyvGYPSxtJgD_jjgVX-140" style="edgeStyle=orthogonalEdgeStyle;rounded=0;orthogonalLoop=1;jettySize=auto;html=1;exitX=0;exitY=0;exitDx=77.5;exitDy=90;exitPerimeter=0;entryX=0.5;entryY=0;entryDx=0;entryDy=0;" edge="1" parent="1" source="sOHyvGYPSxtJgD_jjgVX-11" target="sOHyvGYPSxtJgD_jjgVX-142">
          <mxGeometry relative="1" as="geometry">
            <mxPoint x="117" y="891" as="targetPoint" />
          </mxGeometry>
        </mxCell>
        <mxCell id="sOHyvGYPSxtJgD_jjgVX-11" value="Additional &lt;br&gt;Features" style="shape=cube;whiteSpace=wrap;html=1;boundedLbl=1;backgroundOutline=1;darkOpacity=0.05;darkOpacity2=0.1;" vertex="1" parent="1">
          <mxGeometry x="40" y="741" width="135" height="90" as="geometry" />
        </mxCell>
        <mxCell id="sOHyvGYPSxtJgD_jjgVX-20" style="edgeStyle=orthogonalEdgeStyle;rounded=0;orthogonalLoop=1;jettySize=auto;html=1;entryX=0.5;entryY=0;entryDx=0;entryDy=0;" edge="1" parent="1" source="sOHyvGYPSxtJgD_jjgVX-12" target="sOHyvGYPSxtJgD_jjgVX-17">
          <mxGeometry relative="1" as="geometry" />
        </mxCell>
        <mxCell id="sOHyvGYPSxtJgD_jjgVX-12" value="Login / Register" style="ellipse;whiteSpace=wrap;html=1;aspect=fixed;" vertex="1" parent="1">
          <mxGeometry x="-253" y="210" width="130" height="130" as="geometry" />
        </mxCell>
        <mxCell id="sOHyvGYPSxtJgD_jjgVX-16" value="Authorization" style="text;html=1;align=center;verticalAlign=middle;whiteSpace=wrap;rounded=0;" vertex="1" parent="1">
          <mxGeometry x="-98" y="430" width="60" height="30" as="geometry" />
        </mxCell>
        <mxCell id="sOHyvGYPSxtJgD_jjgVX-17" value="Accounts&lt;div&gt;Table&lt;/div&gt;" style="shape=dataStorage;whiteSpace=wrap;html=1;fixedSize=1;" vertex="1" parent="1">
          <mxGeometry x="-258" y="387" width="140" height="80" as="geometry" />
        </mxCell>
        <mxCell id="sOHyvGYPSxtJgD_jjgVX-18" style="edgeStyle=orthogonalEdgeStyle;rounded=0;orthogonalLoop=1;jettySize=auto;html=1;entryX=0;entryY=0;entryDx=0;entryDy=35;entryPerimeter=0;" edge="1" parent="1" source="sOHyvGYPSxtJgD_jjgVX-17" target="sOHyvGYPSxtJgD_jjgVX-9">
          <mxGeometry relative="1" as="geometry" />
        </mxCell>
        <mxCell id="sOHyvGYPSxtJgD_jjgVX-21" style="edgeStyle=orthogonalEdgeStyle;rounded=0;orthogonalLoop=1;jettySize=auto;html=1;entryX=0;entryY=0;entryDx=0;entryDy=35;entryPerimeter=0;exitX=0.852;exitY=0.496;exitDx=0;exitDy=0;exitPerimeter=0;" edge="1" parent="1" source="sOHyvGYPSxtJgD_jjgVX-17" target="sOHyvGYPSxtJgD_jjgVX-10">
          <mxGeometry relative="1" as="geometry">
            <Array as="points">
              <mxPoint x="-10" y="427" />
              <mxPoint x="-10" y="126" />
            </Array>
          </mxGeometry>
        </mxCell>
        <mxCell id="sOHyvGYPSxtJgD_jjgVX-22" style="edgeStyle=orthogonalEdgeStyle;rounded=0;orthogonalLoop=1;jettySize=auto;html=1;entryX=0;entryY=0;entryDx=0;entryDy=35;entryPerimeter=0;exitX=0.865;exitY=0.499;exitDx=0;exitDy=0;exitPerimeter=0;" edge="1" parent="1" source="sOHyvGYPSxtJgD_jjgVX-17" target="sOHyvGYPSxtJgD_jjgVX-11">
          <mxGeometry relative="1" as="geometry">
            <Array as="points">
              <mxPoint x="-10" y="427" />
              <mxPoint x="-10" y="776" />
            </Array>
          </mxGeometry>
        </mxCell>
        <mxCell id="sOHyvGYPSxtJgD_jjgVX-23" style="edgeStyle=orthogonalEdgeStyle;rounded=0;orthogonalLoop=1;jettySize=auto;html=1;entryX=0.577;entryY=1;entryDx=0;entryDy=0;entryPerimeter=0;exitX=0.57;exitY=0.005;exitDx=0;exitDy=0;exitPerimeter=0;" edge="1" parent="1" source="sOHyvGYPSxtJgD_jjgVX-17" target="sOHyvGYPSxtJgD_jjgVX-12">
          <mxGeometry relative="1" as="geometry">
            <mxPoint x="-78" y="290" as="sourcePoint" />
          </mxGeometry>
        </mxCell>
        <mxCell id="sOHyvGYPSxtJgD_jjgVX-24" value="Confirmation" style="text;html=1;align=center;verticalAlign=middle;whiteSpace=wrap;rounded=0;" vertex="1" parent="1">
          <mxGeometry x="-178" y="350" width="90" height="30" as="geometry" />
        </mxCell>
        <mxCell id="sOHyvGYPSxtJgD_jjgVX-25" value="Authenticate" style="text;html=1;align=center;verticalAlign=middle;whiteSpace=wrap;rounded=0;" vertex="1" parent="1">
          <mxGeometry x="-278" y="350" width="90" height="30" as="geometry" />
        </mxCell>
        <mxCell id="sOHyvGYPSxtJgD_jjgVX-29" style="edgeStyle=orthogonalEdgeStyle;rounded=0;orthogonalLoop=1;jettySize=auto;html=1;exitX=0.5;exitY=0;exitDx=0;exitDy=0;exitPerimeter=0;entryX=0.5;entryY=1;entryDx=0;entryDy=0;" edge="1" parent="1" source="sOHyvGYPSxtJgD_jjgVX-28" target="sOHyvGYPSxtJgD_jjgVX-17">
          <mxGeometry relative="1" as="geometry" />
        </mxCell>
        <mxCell id="sOHyvGYPSxtJgD_jjgVX-28" value="FITS&lt;div&gt;Database&lt;/div&gt;" style="shape=cylinder3;whiteSpace=wrap;html=1;boundedLbl=1;backgroundOutline=1;size=15;" vertex="1" parent="1">
          <mxGeometry x="-243" y="525" width="110" height="120" as="geometry" />
        </mxCell>
        <mxCell id="sOHyvGYPSxtJgD_jjgVX-35" style="edgeStyle=orthogonalEdgeStyle;rounded=0;orthogonalLoop=1;jettySize=auto;html=1;entryX=0;entryY=0.5;entryDx=0;entryDy=0;" edge="1" parent="1" source="sOHyvGYPSxtJgD_jjgVX-30" target="sOHyvGYPSxtJgD_jjgVX-34">
          <mxGeometry relative="1" as="geometry" />
        </mxCell>
        <mxCell id="sOHyvGYPSxtJgD_jjgVX-46" style="edgeStyle=orthogonalEdgeStyle;rounded=0;orthogonalLoop=1;jettySize=auto;html=1;exitX=0.013;exitY=0.388;exitDx=0;exitDy=0;entryX=0.866;entryY=0.505;entryDx=0;entryDy=0;exitPerimeter=0;entryPerimeter=0;" edge="1" parent="1" source="sOHyvGYPSxtJgD_jjgVX-37" target="sOHyvGYPSxtJgD_jjgVX-53">
          <mxGeometry relative="1" as="geometry" />
        </mxCell>
        <mxCell id="sOHyvGYPSxtJgD_jjgVX-30" value="Items" style="ellipse;whiteSpace=wrap;html=1;aspect=fixed;" vertex="1" parent="1">
          <mxGeometry x="270" y="106" width="80" height="80" as="geometry" />
        </mxCell>
        <mxCell id="sOHyvGYPSxtJgD_jjgVX-31" style="edgeStyle=orthogonalEdgeStyle;rounded=0;orthogonalLoop=1;jettySize=auto;html=1;exitX=0.008;exitY=0.399;exitDx=0;exitDy=0;exitPerimeter=0;entryX=1.007;entryY=0.519;entryDx=0;entryDy=0;entryPerimeter=0;" edge="1" parent="1" source="sOHyvGYPSxtJgD_jjgVX-30" target="sOHyvGYPSxtJgD_jjgVX-10">
          <mxGeometry relative="1" as="geometry">
            <mxPoint x="185" y="156" as="sourcePoint" />
            <mxPoint x="280" y="156" as="targetPoint" />
          </mxGeometry>
        </mxCell>
        <mxCell id="sOHyvGYPSxtJgD_jjgVX-32" value="EIC" style="text;html=1;align=center;verticalAlign=middle;whiteSpace=wrap;rounded=0;" vertex="1" parent="1">
          <mxGeometry x="182" y="141" width="60" height="30" as="geometry" />
        </mxCell>
        <mxCell id="sOHyvGYPSxtJgD_jjgVX-33" value="return" style="text;html=1;align=center;verticalAlign=middle;whiteSpace=wrap;rounded=0;" vertex="1" parent="1">
          <mxGeometry x="208" y="114" width="60" height="30" as="geometry" />
        </mxCell>
        <mxCell id="sOHyvGYPSxtJgD_jjgVX-38" style="edgeStyle=orthogonalEdgeStyle;rounded=0;orthogonalLoop=1;jettySize=auto;html=1;exitX=0.5;exitY=1;exitDx=0;exitDy=0;entryX=0.5;entryY=0;entryDx=0;entryDy=0;" edge="1" parent="1" source="sOHyvGYPSxtJgD_jjgVX-34" target="sOHyvGYPSxtJgD_jjgVX-37">
          <mxGeometry relative="1" as="geometry" />
        </mxCell>
        <mxCell id="sOHyvGYPSxtJgD_jjgVX-42" style="edgeStyle=orthogonalEdgeStyle;rounded=0;orthogonalLoop=1;jettySize=auto;html=1;exitX=0.001;exitY=0.433;exitDx=0;exitDy=0;entryX=0.999;entryY=0.432;entryDx=0;entryDy=0;entryPerimeter=0;exitPerimeter=0;" edge="1" parent="1">
          <mxGeometry relative="1" as="geometry">
            <mxPoint x="349.9200000000001" y="138.55999999999995" as="targetPoint" />
            <mxPoint x="440.1400000000001" y="138.6400000000001" as="sourcePoint" />
          </mxGeometry>
        </mxCell>
        <mxCell id="sOHyvGYPSxtJgD_jjgVX-148" style="edgeStyle=orthogonalEdgeStyle;rounded=0;orthogonalLoop=1;jettySize=auto;html=1;exitX=0.86;exitY=0.489;exitDx=0;exitDy=0;exitPerimeter=0;" edge="1" parent="1" source="sOHyvGYPSxtJgD_jjgVX-34" target="sOHyvGYPSxtJgD_jjgVX-146">
          <mxGeometry relative="1" as="geometry">
            <Array as="points">
              <mxPoint x="610" y="145" />
              <mxPoint x="610" y="78" />
            </Array>
          </mxGeometry>
        </mxCell>
        <mxCell id="sOHyvGYPSxtJgD_jjgVX-34" value="EIC_Transaction&lt;div&gt;Table&lt;/div&gt;" style="shape=dataStorage;whiteSpace=wrap;html=1;fixedSize=1;" vertex="1" parent="1">
          <mxGeometry x="440" y="106" width="140" height="80" as="geometry" />
        </mxCell>
        <mxCell id="sOHyvGYPSxtJgD_jjgVX-36" value="applied" style="text;html=1;align=center;verticalAlign=middle;whiteSpace=wrap;rounded=0;" vertex="1" parent="1">
          <mxGeometry x="350" y="146.5" width="60" height="19" as="geometry" />
        </mxCell>
        <mxCell id="sOHyvGYPSxtJgD_jjgVX-37" value="Borrow Request" style="ellipse;whiteSpace=wrap;html=1;aspect=fixed;" vertex="1" parent="1">
          <mxGeometry x="470" y="250" width="80" height="80" as="geometry" />
        </mxCell>
        <mxCell id="sOHyvGYPSxtJgD_jjgVX-39" style="edgeStyle=orthogonalEdgeStyle;rounded=0;orthogonalLoop=1;jettySize=auto;html=1;exitX=0.585;exitY=0.004;exitDx=0;exitDy=0;exitPerimeter=0;entryX=0.552;entryY=1.002;entryDx=0;entryDy=0;entryPerimeter=0;" edge="1" parent="1" source="sOHyvGYPSxtJgD_jjgVX-37" target="sOHyvGYPSxtJgD_jjgVX-34">
          <mxGeometry relative="1" as="geometry">
            <mxPoint x="520" y="196" as="sourcePoint" />
            <mxPoint x="520" y="190" as="targetPoint" />
          </mxGeometry>
        </mxCell>
        <mxCell id="sOHyvGYPSxtJgD_jjgVX-40" value="request" style="text;html=1;align=center;verticalAlign=middle;whiteSpace=wrap;rounded=0;" vertex="1" parent="1">
          <mxGeometry x="460" y="197" width="50" height="20" as="geometry" />
        </mxCell>
        <mxCell id="sOHyvGYPSxtJgD_jjgVX-41" value="&lt;div&gt;approval&lt;/div&gt;" style="text;html=1;align=center;verticalAlign=middle;whiteSpace=wrap;rounded=0;" vertex="1" parent="1">
          <mxGeometry x="522" y="220" width="50" height="20" as="geometry" />
        </mxCell>
        <mxCell id="sOHyvGYPSxtJgD_jjgVX-43" value="reserved" style="text;html=1;align=center;verticalAlign=middle;whiteSpace=wrap;rounded=0;" vertex="1" parent="1">
          <mxGeometry x="380" y="118" width="60" height="24" as="geometry" />
        </mxCell>
        <mxCell id="sOHyvGYPSxtJgD_jjgVX-45" style="edgeStyle=orthogonalEdgeStyle;rounded=0;orthogonalLoop=1;jettySize=auto;html=1;exitX=0.866;exitY=0.625;exitDx=0;exitDy=0;entryX=0;entryY=0.5;entryDx=0;entryDy=0;exitPerimeter=0;" edge="1" parent="1" source="sOHyvGYPSxtJgD_jjgVX-53" target="sOHyvGYPSxtJgD_jjgVX-37">
          <mxGeometry relative="1" as="geometry" />
        </mxCell>
        <mxCell id="sOHyvGYPSxtJgD_jjgVX-54" style="edgeStyle=orthogonalEdgeStyle;rounded=0;orthogonalLoop=1;jettySize=auto;html=1;entryX=0;entryY=0.5;entryDx=0;entryDy=0;" edge="1" parent="1" source="sOHyvGYPSxtJgD_jjgVX-44" target="sOHyvGYPSxtJgD_jjgVX-53">
          <mxGeometry relative="1" as="geometry" />
        </mxCell>
        <mxCell id="sOHyvGYPSxtJgD_jjgVX-44" value="produce" style="ellipse;whiteSpace=wrap;html=1;aspect=fixed;" vertex="1" parent="1">
          <mxGeometry x="120" y="240" width="80" height="80" as="geometry" />
        </mxCell>
        <mxCell id="sOHyvGYPSxtJgD_jjgVX-48" value="request" style="text;html=1;align=center;verticalAlign=middle;whiteSpace=wrap;rounded=0;" vertex="1" parent="1">
          <mxGeometry x="378" y="290" width="50" height="20" as="geometry" />
        </mxCell>
        <mxCell id="sOHyvGYPSxtJgD_jjgVX-49" value="&lt;div&gt;approval&lt;/div&gt;" style="text;html=1;align=center;verticalAlign=middle;whiteSpace=wrap;rounded=0;" vertex="1" parent="1">
          <mxGeometry x="410" y="260" width="50" height="20" as="geometry" />
        </mxCell>
        <mxCell id="sOHyvGYPSxtJgD_jjgVX-51" value="Distributions" style="text;html=1;align=center;verticalAlign=middle;whiteSpace=wrap;rounded=0;" vertex="1" parent="1">
          <mxGeometry x="86" y="200" width="60" height="20" as="geometry" />
        </mxCell>
        <mxCell id="sOHyvGYPSxtJgD_jjgVX-52" value="return" style="text;html=1;align=center;verticalAlign=middle;whiteSpace=wrap;rounded=0;" vertex="1" parent="1">
          <mxGeometry x="150" y="217" width="60" height="20" as="geometry" />
        </mxCell>
        <mxCell id="sOHyvGYPSxtJgD_jjgVX-53" value="EIC_Transaction&lt;div&gt;Table&lt;/div&gt;" style="shape=dataStorage;whiteSpace=wrap;html=1;fixedSize=1;" vertex="1" parent="1">
          <mxGeometry x="234" y="240" width="140" height="80" as="geometry" />
        </mxCell>
        <mxCell id="sOHyvGYPSxtJgD_jjgVX-55" style="edgeStyle=orthogonalEdgeStyle;rounded=0;orthogonalLoop=1;jettySize=auto;html=1;exitX=0.5;exitY=0;exitDx=0;exitDy=0;entryX=0.894;entryY=1;entryDx=0;entryDy=0;entryPerimeter=0;" edge="1" parent="1" source="sOHyvGYPSxtJgD_jjgVX-44" target="sOHyvGYPSxtJgD_jjgVX-10">
          <mxGeometry relative="1" as="geometry">
            <mxPoint x="164" y="192" as="sourcePoint" />
            <mxPoint x="163" y="251" as="targetPoint" />
          </mxGeometry>
        </mxCell>
        <mxCell id="sOHyvGYPSxtJgD_jjgVX-147" style="edgeStyle=orthogonalEdgeStyle;rounded=0;orthogonalLoop=1;jettySize=auto;html=1;entryX=0;entryY=0.5;entryDx=0;entryDy=0;exitX=0.856;exitY=0.492;exitDx=0;exitDy=0;exitPerimeter=0;" edge="1" parent="1" source="sOHyvGYPSxtJgD_jjgVX-56" target="sOHyvGYPSxtJgD_jjgVX-146">
          <mxGeometry relative="1" as="geometry">
            <Array as="points">
              <mxPoint x="610" y="19" />
              <mxPoint x="610" y="78" />
            </Array>
          </mxGeometry>
        </mxCell>
        <mxCell id="sOHyvGYPSxtJgD_jjgVX-56" value="Accounts&lt;br&gt;&lt;div&gt;Table&lt;/div&gt;" style="shape=dataStorage;whiteSpace=wrap;html=1;fixedSize=1;" vertex="1" parent="1">
          <mxGeometry x="440" y="-20" width="140" height="80" as="geometry" />
        </mxCell>
        <mxCell id="sOHyvGYPSxtJgD_jjgVX-59" style="edgeStyle=orthogonalEdgeStyle;rounded=0;orthogonalLoop=1;jettySize=auto;html=1;exitX=1;exitY=0.5;exitDx=0;exitDy=0;entryX=0;entryY=0.5;entryDx=0;entryDy=0;" edge="1" parent="1" source="sOHyvGYPSxtJgD_jjgVX-57" target="sOHyvGYPSxtJgD_jjgVX-56">
          <mxGeometry relative="1" as="geometry" />
        </mxCell>
        <mxCell id="sOHyvGYPSxtJgD_jjgVX-60" style="edgeStyle=orthogonalEdgeStyle;rounded=0;orthogonalLoop=1;jettySize=auto;html=1;exitX=0.004;exitY=0.415;exitDx=0;exitDy=0;exitPerimeter=0;entryX=0.884;entryY=0.047;entryDx=0;entryDy=0;entryPerimeter=0;" edge="1" parent="1" source="sOHyvGYPSxtJgD_jjgVX-57" target="sOHyvGYPSxtJgD_jjgVX-10">
          <mxGeometry relative="1" as="geometry">
            <mxPoint x="184" y="90" as="targetPoint" />
            <mxPoint x="274.31999999999994" y="12.960000000000036" as="sourcePoint" />
            <Array as="points">
              <mxPoint x="214" y="13" />
              <mxPoint x="214" y="95" />
            </Array>
          </mxGeometry>
        </mxCell>
        <mxCell id="sOHyvGYPSxtJgD_jjgVX-57" value="Profile" style="ellipse;whiteSpace=wrap;html=1;aspect=fixed;" vertex="1" parent="1">
          <mxGeometry x="270" y="-20" width="80" height="80" as="geometry" />
        </mxCell>
        <mxCell id="sOHyvGYPSxtJgD_jjgVX-61" value="return" style="text;html=1;align=center;verticalAlign=middle;whiteSpace=wrap;rounded=0;" vertex="1" parent="1">
          <mxGeometry x="210" y="-10" width="60" height="30" as="geometry" />
        </mxCell>
        <mxCell id="sOHyvGYPSxtJgD_jjgVX-62" value="account" style="text;html=1;align=center;verticalAlign=middle;whiteSpace=wrap;rounded=0;" vertex="1" parent="1">
          <mxGeometry x="222" y="55" width="53" height="30" as="geometry" />
        </mxCell>
        <mxCell id="sOHyvGYPSxtJgD_jjgVX-64" style="edgeStyle=orthogonalEdgeStyle;rounded=0;orthogonalLoop=1;jettySize=auto;html=1;exitX=-0.002;exitY=0.413;exitDx=0;exitDy=0;entryX=0.994;entryY=0.413;entryDx=0;entryDy=0;entryPerimeter=0;exitPerimeter=0;" edge="1" parent="1" source="sOHyvGYPSxtJgD_jjgVX-56" target="sOHyvGYPSxtJgD_jjgVX-57">
          <mxGeometry relative="1" as="geometry">
            <mxPoint x="360" y="30" as="sourcePoint" />
            <mxPoint x="450" y="30" as="targetPoint" />
          </mxGeometry>
        </mxCell>
        <mxCell id="sOHyvGYPSxtJgD_jjgVX-65" value="changes" style="text;html=1;align=center;verticalAlign=middle;whiteSpace=wrap;rounded=0;" vertex="1" parent="1">
          <mxGeometry x="353.5" y="20" width="53" height="20" as="geometry" />
        </mxCell>
        <mxCell id="sOHyvGYPSxtJgD_jjgVX-66" value="response" style="text;html=1;align=center;verticalAlign=middle;whiteSpace=wrap;rounded=0;" vertex="1" parent="1">
          <mxGeometry x="379" y="-6" width="66.5" height="20" as="geometry" />
        </mxCell>
        <mxCell id="sOHyvGYPSxtJgD_jjgVX-74" style="edgeStyle=orthogonalEdgeStyle;rounded=0;orthogonalLoop=1;jettySize=auto;html=1;exitX=1;exitY=0.5;exitDx=0;exitDy=0;entryX=0;entryY=0.5;entryDx=0;entryDy=0;" edge="1" parent="1" source="sOHyvGYPSxtJgD_jjgVX-68" target="sOHyvGYPSxtJgD_jjgVX-73">
          <mxGeometry relative="1" as="geometry" />
        </mxCell>
        <mxCell id="sOHyvGYPSxtJgD_jjgVX-77" style="edgeStyle=orthogonalEdgeStyle;rounded=0;orthogonalLoop=1;jettySize=auto;html=1;entryX=0.5;entryY=1;entryDx=0;entryDy=0;" edge="1" parent="1" source="sOHyvGYPSxtJgD_jjgVX-68" target="sOHyvGYPSxtJgD_jjgVX-37">
          <mxGeometry relative="1" as="geometry">
            <Array as="points">
              <mxPoint x="308" y="360" />
              <mxPoint x="510" y="360" />
            </Array>
          </mxGeometry>
        </mxCell>
        <mxCell id="sOHyvGYPSxtJgD_jjgVX-68" value="CRUD" style="ellipse;whiteSpace=wrap;html=1;aspect=fixed;" vertex="1" parent="1">
          <mxGeometry x="268" y="397" width="80" height="80" as="geometry" />
        </mxCell>
        <mxCell id="sOHyvGYPSxtJgD_jjgVX-71" style="edgeStyle=orthogonalEdgeStyle;rounded=0;orthogonalLoop=1;jettySize=auto;html=1;exitX=0.003;exitY=0.409;exitDx=0;exitDy=0;exitPerimeter=0;entryX=1.001;entryY=0.421;entryDx=0;entryDy=0;entryPerimeter=0;" edge="1" parent="1" source="sOHyvGYPSxtJgD_jjgVX-68" target="sOHyvGYPSxtJgD_jjgVX-9">
          <mxGeometry relative="1" as="geometry">
            <mxPoint x="180" y="430" as="targetPoint" />
          </mxGeometry>
        </mxCell>
        <mxCell id="sOHyvGYPSxtJgD_jjgVX-70" value="EIC Item" style="text;html=1;align=center;verticalAlign=middle;whiteSpace=wrap;rounded=0;" vertex="1" parent="1">
          <mxGeometry x="174" y="433" width="60" height="30" as="geometry" />
        </mxCell>
        <mxCell id="sOHyvGYPSxtJgD_jjgVX-72" value="response" style="text;html=1;align=center;verticalAlign=middle;whiteSpace=wrap;rounded=0;" vertex="1" parent="1">
          <mxGeometry x="205" y="410" width="70" height="20" as="geometry" />
        </mxCell>
        <mxCell id="sOHyvGYPSxtJgD_jjgVX-94" style="edgeStyle=orthogonalEdgeStyle;rounded=0;orthogonalLoop=1;jettySize=auto;html=1;entryX=0;entryY=0.5;entryDx=0;entryDy=0;exitX=0.865;exitY=0.498;exitDx=0;exitDy=0;exitPerimeter=0;" edge="1" parent="1" source="sOHyvGYPSxtJgD_jjgVX-73" target="sOHyvGYPSxtJgD_jjgVX-93">
          <mxGeometry relative="1" as="geometry">
            <Array as="points">
              <mxPoint x="620" y="437" />
              <mxPoint x="620" y="490" />
            </Array>
          </mxGeometry>
        </mxCell>
        <mxCell id="sOHyvGYPSxtJgD_jjgVX-73" value="EIC&lt;div&gt;Table&lt;/div&gt;" style="shape=dataStorage;whiteSpace=wrap;html=1;fixedSize=1;" vertex="1" parent="1">
          <mxGeometry x="445.5" y="397" width="140" height="80" as="geometry" />
        </mxCell>
        <mxCell id="sOHyvGYPSxtJgD_jjgVX-75" style="edgeStyle=orthogonalEdgeStyle;rounded=0;orthogonalLoop=1;jettySize=auto;html=1;entryX=1;entryY=0.401;entryDx=0;entryDy=0;entryPerimeter=0;exitX=0.003;exitY=0.401;exitDx=0;exitDy=0;exitPerimeter=0;" edge="1" parent="1" source="sOHyvGYPSxtJgD_jjgVX-73" target="sOHyvGYPSxtJgD_jjgVX-68">
          <mxGeometry relative="1" as="geometry" />
        </mxCell>
        <mxCell id="sOHyvGYPSxtJgD_jjgVX-78" style="edgeStyle=orthogonalEdgeStyle;rounded=0;orthogonalLoop=1;jettySize=auto;html=1;entryX=0.617;entryY=0.018;entryDx=0;entryDy=0;entryPerimeter=0;" edge="1" parent="1" source="sOHyvGYPSxtJgD_jjgVX-37" target="sOHyvGYPSxtJgD_jjgVX-68">
          <mxGeometry relative="1" as="geometry">
            <Array as="points">
              <mxPoint x="520" y="370" />
              <mxPoint x="317" y="370" />
            </Array>
          </mxGeometry>
        </mxCell>
        <mxCell id="sOHyvGYPSxtJgD_jjgVX-79" value="&lt;div&gt;admin response&lt;/div&gt;" style="text;html=1;align=center;verticalAlign=middle;whiteSpace=wrap;rounded=0;" vertex="1" parent="1">
          <mxGeometry x="320" y="340" width="90" height="20" as="geometry" />
        </mxCell>
        <mxCell id="sOHyvGYPSxtJgD_jjgVX-80" value="await" style="text;html=1;align=center;verticalAlign=middle;whiteSpace=wrap;rounded=0;" vertex="1" parent="1">
          <mxGeometry x="472" y="369" width="50" height="20" as="geometry" />
        </mxCell>
        <mxCell id="sOHyvGYPSxtJgD_jjgVX-81" value="changes" style="text;html=1;align=center;verticalAlign=middle;whiteSpace=wrap;rounded=0;" vertex="1" parent="1">
          <mxGeometry x="348" y="438" width="60" height="20" as="geometry" />
        </mxCell>
        <mxCell id="sOHyvGYPSxtJgD_jjgVX-82" value="confirmation" style="text;html=1;align=center;verticalAlign=middle;whiteSpace=wrap;rounded=0;" vertex="1" parent="1">
          <mxGeometry x="380" y="410" width="60" height="20" as="geometry" />
        </mxCell>
        <mxCell id="sOHyvGYPSxtJgD_jjgVX-89" style="edgeStyle=orthogonalEdgeStyle;rounded=0;orthogonalLoop=1;jettySize=auto;html=1;exitX=1;exitY=0.5;exitDx=0;exitDy=0;entryX=0;entryY=0.5;entryDx=0;entryDy=0;" edge="1" parent="1" source="sOHyvGYPSxtJgD_jjgVX-83" target="sOHyvGYPSxtJgD_jjgVX-88">
          <mxGeometry relative="1" as="geometry" />
        </mxCell>
        <mxCell id="sOHyvGYPSxtJgD_jjgVX-83" value="CRUD" style="ellipse;whiteSpace=wrap;html=1;aspect=fixed;" vertex="1" parent="1">
          <mxGeometry x="220" y="490" width="80" height="80" as="geometry" />
        </mxCell>
        <mxCell id="sOHyvGYPSxtJgD_jjgVX-86" value="inventory" style="text;html=1;align=center;verticalAlign=middle;whiteSpace=wrap;rounded=0;" vertex="1" parent="1">
          <mxGeometry x="148" y="525" width="60" height="30" as="geometry" />
        </mxCell>
        <mxCell id="sOHyvGYPSxtJgD_jjgVX-87" value="data" style="text;html=1;align=center;verticalAlign=middle;whiteSpace=wrap;rounded=0;" vertex="1" parent="1">
          <mxGeometry x="160" y="503" width="60" height="20" as="geometry" />
        </mxCell>
        <mxCell id="sOHyvGYPSxtJgD_jjgVX-97" style="edgeStyle=orthogonalEdgeStyle;rounded=0;orthogonalLoop=1;jettySize=auto;html=1;entryX=0;entryY=0.5;entryDx=0;entryDy=0;exitX=0.86;exitY=0.486;exitDx=0;exitDy=0;exitPerimeter=0;" edge="1" parent="1" source="sOHyvGYPSxtJgD_jjgVX-88" target="sOHyvGYPSxtJgD_jjgVX-93">
          <mxGeometry relative="1" as="geometry">
            <Array as="points">
              <mxPoint x="620" y="529" />
              <mxPoint x="620" y="490" />
            </Array>
          </mxGeometry>
        </mxCell>
        <mxCell id="sOHyvGYPSxtJgD_jjgVX-88" value="Inventory&lt;div&gt;Table&lt;/div&gt;" style="shape=dataStorage;whiteSpace=wrap;html=1;fixedSize=1;" vertex="1" parent="1">
          <mxGeometry x="428" y="490" width="140" height="80" as="geometry" />
        </mxCell>
        <mxCell id="sOHyvGYPSxtJgD_jjgVX-90" style="edgeStyle=orthogonalEdgeStyle;rounded=0;orthogonalLoop=1;jettySize=auto;html=1;entryX=0.999;entryY=0.405;entryDx=0;entryDy=0;entryPerimeter=0;exitX=0.006;exitY=0.397;exitDx=0;exitDy=0;exitPerimeter=0;" edge="1" parent="1" source="sOHyvGYPSxtJgD_jjgVX-88" target="sOHyvGYPSxtJgD_jjgVX-83">
          <mxGeometry relative="1" as="geometry" />
        </mxCell>
        <mxCell id="sOHyvGYPSxtJgD_jjgVX-91" value="changes" style="text;html=1;align=center;verticalAlign=middle;whiteSpace=wrap;rounded=0;" vertex="1" parent="1">
          <mxGeometry x="300" y="530" width="60" height="20" as="geometry" />
        </mxCell>
        <mxCell id="sOHyvGYPSxtJgD_jjgVX-92" value="confirmation" style="text;html=1;align=center;verticalAlign=middle;whiteSpace=wrap;rounded=0;" vertex="1" parent="1">
          <mxGeometry x="360" y="503" width="60" height="20" as="geometry" />
        </mxCell>
        <mxCell id="sOHyvGYPSxtJgD_jjgVX-99" style="edgeStyle=orthogonalEdgeStyle;rounded=0;orthogonalLoop=1;jettySize=auto;html=1;exitX=0.5;exitY=1;exitDx=0;exitDy=0;entryX=0.25;entryY=0;entryDx=0;entryDy=0;" edge="1" parent="1" source="sOHyvGYPSxtJgD_jjgVX-93">
          <mxGeometry relative="1" as="geometry">
            <mxPoint x="694.9199999999998" y="509.9200000000003" as="sourcePoint" />
            <mxPoint x="695" y="610" as="targetPoint" />
          </mxGeometry>
        </mxCell>
        <mxCell id="sOHyvGYPSxtJgD_jjgVX-93" value="Audit" style="ellipse;whiteSpace=wrap;html=1;aspect=fixed;" vertex="1" parent="1">
          <mxGeometry x="690" y="450" width="80" height="80" as="geometry" />
        </mxCell>
        <mxCell id="sOHyvGYPSxtJgD_jjgVX-95" value="record" style="text;html=1;align=center;verticalAlign=middle;whiteSpace=wrap;rounded=0;" vertex="1" parent="1">
          <mxGeometry x="614" y="470" width="60" height="20" as="geometry" />
        </mxCell>
        <mxCell id="sOHyvGYPSxtJgD_jjgVX-96" value="Audit&lt;div&gt;Table&lt;/div&gt;" style="shape=dataStorage;whiteSpace=wrap;html=1;fixedSize=1;" vertex="1" parent="1">
          <mxGeometry x="659" y="610" width="140" height="80" as="geometry" />
        </mxCell>
        <mxCell id="sOHyvGYPSxtJgD_jjgVX-101" value="logging" style="text;html=1;align=center;verticalAlign=middle;whiteSpace=wrap;rounded=0;" vertex="1" parent="1">
          <mxGeometry x="681" y="552.5" width="40" height="13" as="geometry" />
        </mxCell>
        <mxCell id="sOHyvGYPSxtJgD_jjgVX-104" value="Analytics" style="shape=cube;whiteSpace=wrap;html=1;boundedLbl=1;backgroundOutline=1;darkOpacity=0.05;darkOpacity2=0.1;" vertex="1" parent="1">
          <mxGeometry x="900" y="397" width="120" height="80" as="geometry" />
        </mxCell>
        <mxCell id="sOHyvGYPSxtJgD_jjgVX-105" style="edgeStyle=orthogonalEdgeStyle;rounded=0;orthogonalLoop=1;jettySize=auto;html=1;entryX=0;entryY=0;entryDx=0;entryDy=30;entryPerimeter=0;" edge="1" parent="1" source="sOHyvGYPSxtJgD_jjgVX-93" target="sOHyvGYPSxtJgD_jjgVX-104">
          <mxGeometry relative="1" as="geometry" />
        </mxCell>
        <mxCell id="sOHyvGYPSxtJgD_jjgVX-106" value="charting" style="text;html=1;align=center;verticalAlign=middle;whiteSpace=wrap;rounded=0;" vertex="1" parent="1">
          <mxGeometry x="774" y="496" width="65.5" height="13" as="geometry" />
        </mxCell>
        <mxCell id="sOHyvGYPSxtJgD_jjgVX-107" value="&lt;font style=&quot;font-size: 18px;&quot;&gt;&lt;b&gt;&lt;i&gt;OUTPUT&lt;/i&gt;&lt;/b&gt;&lt;/font&gt;" style="text;html=1;align=center;verticalAlign=middle;whiteSpace=wrap;rounded=0;" vertex="1" parent="1">
          <mxGeometry x="900" y="325" width="120" height="80" as="geometry" />
        </mxCell>
        <mxCell id="sOHyvGYPSxtJgD_jjgVX-110" value="Audit Logs" style="shape=cube;whiteSpace=wrap;html=1;boundedLbl=1;backgroundOutline=1;darkOpacity=0.05;darkOpacity2=0.1;" vertex="1" parent="1">
          <mxGeometry x="900" y="520" width="120" height="80" as="geometry" />
        </mxCell>
        <mxCell id="sOHyvGYPSxtJgD_jjgVX-111" style="edgeStyle=orthogonalEdgeStyle;rounded=0;orthogonalLoop=1;jettySize=auto;html=1;exitX=0.5;exitY=1;exitDx=0;exitDy=0;entryX=0;entryY=0;entryDx=0;entryDy=30;entryPerimeter=0;" edge="1" parent="1" source="sOHyvGYPSxtJgD_jjgVX-93" target="sOHyvGYPSxtJgD_jjgVX-110">
          <mxGeometry relative="1" as="geometry" />
        </mxCell>
        <mxCell id="sOHyvGYPSxtJgD_jjgVX-112" value="trailing" style="text;html=1;align=center;verticalAlign=middle;whiteSpace=wrap;rounded=0;" vertex="1" parent="1">
          <mxGeometry x="770" y="555" width="65.5" height="13" as="geometry" />
        </mxCell>
        <mxCell id="sOHyvGYPSxtJgD_jjgVX-122" style="edgeStyle=orthogonalEdgeStyle;rounded=0;orthogonalLoop=1;jettySize=auto;html=1;exitX=1;exitY=0.5;exitDx=0;exitDy=0;" edge="1" parent="1" source="sOHyvGYPSxtJgD_jjgVX-116" target="sOHyvGYPSxtJgD_jjgVX-121">
          <mxGeometry relative="1" as="geometry" />
        </mxCell>
        <mxCell id="sOHyvGYPSxtJgD_jjgVX-116" value="User&amp;nbsp;&lt;div&gt;Details&lt;/div&gt;" style="ellipse;whiteSpace=wrap;html=1;aspect=fixed;" vertex="1" parent="1">
          <mxGeometry x="68" y="588" width="80" height="80" as="geometry" />
        </mxCell>
        <mxCell id="sOHyvGYPSxtJgD_jjgVX-118" style="edgeStyle=orthogonalEdgeStyle;rounded=0;orthogonalLoop=1;jettySize=auto;html=1;entryX=0.577;entryY=1.018;entryDx=0;entryDy=0;entryPerimeter=0;exitX=0.621;exitY=0.005;exitDx=0;exitDy=0;exitPerimeter=0;" edge="1" parent="1" source="sOHyvGYPSxtJgD_jjgVX-116" target="sOHyvGYPSxtJgD_jjgVX-9">
          <mxGeometry relative="1" as="geometry" />
        </mxCell>
        <mxCell id="sOHyvGYPSxtJgD_jjgVX-119" value="response" style="text;html=1;align=center;verticalAlign=middle;whiteSpace=wrap;rounded=0;" vertex="1" parent="1">
          <mxGeometry x="125" y="567" width="52" height="20" as="geometry" />
        </mxCell>
        <mxCell id="sOHyvGYPSxtJgD_jjgVX-120" value="User Profiles" style="text;html=1;align=center;verticalAlign=middle;whiteSpace=wrap;rounded=0;" vertex="1" parent="1">
          <mxGeometry x="50" y="493" width="60" height="30" as="geometry" />
        </mxCell>
        <mxCell id="sOHyvGYPSxtJgD_jjgVX-121" value="&lt;div&gt;Accounts&amp;nbsp;&lt;/div&gt;&lt;div&gt;Table&lt;/div&gt;" style="shape=dataStorage;whiteSpace=wrap;html=1;fixedSize=1;" vertex="1" parent="1">
          <mxGeometry x="222" y="588" width="140" height="80" as="geometry" />
        </mxCell>
        <mxCell id="sOHyvGYPSxtJgD_jjgVX-123" style="edgeStyle=orthogonalEdgeStyle;rounded=0;orthogonalLoop=1;jettySize=auto;html=1;entryX=0.995;entryY=0.412;entryDx=0;entryDy=0;entryPerimeter=0;exitX=0.007;exitY=0.412;exitDx=0;exitDy=0;exitPerimeter=0;" edge="1" parent="1" source="sOHyvGYPSxtJgD_jjgVX-121" target="sOHyvGYPSxtJgD_jjgVX-116">
          <mxGeometry relative="1" as="geometry" />
        </mxCell>
        <mxCell id="sOHyvGYPSxtJgD_jjgVX-125" value="request" style="text;html=1;align=center;verticalAlign=middle;whiteSpace=wrap;rounded=0;" vertex="1" parent="1">
          <mxGeometry x="144" y="627" width="60" height="20" as="geometry" />
        </mxCell>
        <mxCell id="sOHyvGYPSxtJgD_jjgVX-126" value="data" style="text;html=1;align=center;verticalAlign=middle;whiteSpace=wrap;rounded=0;" vertex="1" parent="1">
          <mxGeometry x="176" y="602" width="60" height="20" as="geometry" />
        </mxCell>
        <mxCell id="sOHyvGYPSxtJgD_jjgVX-134" style="edgeStyle=orthogonalEdgeStyle;rounded=0;orthogonalLoop=1;jettySize=auto;html=1;entryX=0;entryY=0.5;entryDx=0;entryDy=0;" edge="1" parent="1" source="sOHyvGYPSxtJgD_jjgVX-127" target="sOHyvGYPSxtJgD_jjgVX-133">
          <mxGeometry relative="1" as="geometry" />
        </mxCell>
        <mxCell id="sOHyvGYPSxtJgD_jjgVX-127" value="Access Control" style="ellipse;whiteSpace=wrap;html=1;aspect=fixed;" vertex="1" parent="1">
          <mxGeometry x="294" y="755" width="80" height="80" as="geometry" />
        </mxCell>
        <mxCell id="sOHyvGYPSxtJgD_jjgVX-129" value="User Profiles" style="text;html=1;align=center;verticalAlign=middle;whiteSpace=wrap;rounded=0;" vertex="1" parent="1">
          <mxGeometry x="178" y="802" width="83" height="10" as="geometry" />
        </mxCell>
        <mxCell id="sOHyvGYPSxtJgD_jjgVX-131" style="edgeStyle=orthogonalEdgeStyle;rounded=0;orthogonalLoop=1;jettySize=auto;html=1;entryX=0.999;entryY=0.494;entryDx=0;entryDy=0;entryPerimeter=0;exitX=0.007;exitY=0.389;exitDx=0;exitDy=0;exitPerimeter=0;" edge="1" parent="1" source="sOHyvGYPSxtJgD_jjgVX-127" target="sOHyvGYPSxtJgD_jjgVX-11">
          <mxGeometry relative="1" as="geometry">
            <mxPoint x="294" y="785.8199999999999" as="sourcePoint" />
            <mxPoint x="219" y="785.8199999999999" as="targetPoint" />
          </mxGeometry>
        </mxCell>
        <mxCell id="sOHyvGYPSxtJgD_jjgVX-132" value="response" style="text;html=1;align=center;verticalAlign=middle;whiteSpace=wrap;rounded=0;" vertex="1" parent="1">
          <mxGeometry x="240" y="766" width="52" height="20" as="geometry" />
        </mxCell>
        <mxCell id="sOHyvGYPSxtJgD_jjgVX-138" style="edgeStyle=orthogonalEdgeStyle;rounded=0;orthogonalLoop=1;jettySize=auto;html=1;entryX=0;entryY=0.5;entryDx=0;entryDy=0;exitX=0.5;exitY=0;exitDx=0;exitDy=0;" edge="1" parent="1" source="sOHyvGYPSxtJgD_jjgVX-133" target="sOHyvGYPSxtJgD_jjgVX-93">
          <mxGeometry relative="1" as="geometry">
            <Array as="points">
              <mxPoint x="540" y="580" />
              <mxPoint x="620" y="580" />
              <mxPoint x="620" y="490" />
            </Array>
          </mxGeometry>
        </mxCell>
        <mxCell id="sOHyvGYPSxtJgD_jjgVX-133" value="&lt;div&gt;Accounts&amp;nbsp;&lt;/div&gt;&lt;div&gt;Table&lt;/div&gt;" style="shape=dataStorage;whiteSpace=wrap;html=1;fixedSize=1;" vertex="1" parent="1">
          <mxGeometry x="470" y="755" width="140" height="80" as="geometry" />
        </mxCell>
        <mxCell id="sOHyvGYPSxtJgD_jjgVX-135" value="changes" style="text;html=1;align=center;verticalAlign=middle;whiteSpace=wrap;rounded=0;" vertex="1" parent="1">
          <mxGeometry x="377" y="795" width="52" height="20" as="geometry" />
        </mxCell>
        <mxCell id="sOHyvGYPSxtJgD_jjgVX-136" value="confirmation" style="text;html=1;align=center;verticalAlign=middle;whiteSpace=wrap;rounded=0;" vertex="1" parent="1">
          <mxGeometry x="406.5" y="767" width="52" height="20" as="geometry" />
        </mxCell>
        <mxCell id="sOHyvGYPSxtJgD_jjgVX-137" style="edgeStyle=orthogonalEdgeStyle;rounded=0;orthogonalLoop=1;jettySize=auto;html=1;entryX=0.988;entryY=0.394;entryDx=0;entryDy=0;entryPerimeter=0;exitX=-0.003;exitY=0.394;exitDx=0;exitDy=0;exitPerimeter=0;" edge="1" parent="1" source="sOHyvGYPSxtJgD_jjgVX-133" target="sOHyvGYPSxtJgD_jjgVX-127">
          <mxGeometry relative="1" as="geometry" />
        </mxCell>
        <mxCell id="sOHyvGYPSxtJgD_jjgVX-153" style="edgeStyle=orthogonalEdgeStyle;rounded=0;orthogonalLoop=1;jettySize=auto;html=1;exitX=1;exitY=0.5;exitDx=0;exitDy=0;entryX=0;entryY=0.5;entryDx=0;entryDy=0;" edge="1" parent="1" source="sOHyvGYPSxtJgD_jjgVX-142" target="sOHyvGYPSxtJgD_jjgVX-152">
          <mxGeometry relative="1" as="geometry" />
        </mxCell>
        <mxCell id="sOHyvGYPSxtJgD_jjgVX-142" value="Survey" style="ellipse;whiteSpace=wrap;html=1;aspect=fixed;" vertex="1" parent="1">
          <mxGeometry x="78" y="890" width="80" height="80" as="geometry" />
        </mxCell>
        <mxCell id="sOHyvGYPSxtJgD_jjgVX-143" value="Content Management" style="text;html=1;align=center;verticalAlign=middle;whiteSpace=wrap;rounded=0;" vertex="1" parent="1">
          <mxGeometry x="35" y="838" width="83" height="30" as="geometry" />
        </mxCell>
        <mxCell id="sOHyvGYPSxtJgD_jjgVX-144" style="edgeStyle=orthogonalEdgeStyle;rounded=0;orthogonalLoop=1;jettySize=auto;html=1;entryX=0.629;entryY=1.021;entryDx=0;entryDy=0;entryPerimeter=0;exitX=0.585;exitY=0.007;exitDx=0;exitDy=0;exitPerimeter=0;" edge="1" parent="1" source="sOHyvGYPSxtJgD_jjgVX-142" target="sOHyvGYPSxtJgD_jjgVX-11">
          <mxGeometry relative="1" as="geometry" />
        </mxCell>
        <mxCell id="sOHyvGYPSxtJgD_jjgVX-145" value="re-render" style="text;html=1;align=center;verticalAlign=middle;whiteSpace=wrap;rounded=0;" vertex="1" parent="1">
          <mxGeometry x="130" y="872" width="53" height="12" as="geometry" />
        </mxCell>
        <mxCell id="sOHyvGYPSxtJgD_jjgVX-150" style="edgeStyle=orthogonalEdgeStyle;rounded=0;orthogonalLoop=1;jettySize=auto;html=1;exitX=0.5;exitY=1;exitDx=0;exitDy=0;entryX=0.5;entryY=0;entryDx=0;entryDy=0;" edge="1" parent="1" source="sOHyvGYPSxtJgD_jjgVX-146" target="sOHyvGYPSxtJgD_jjgVX-93">
          <mxGeometry relative="1" as="geometry" />
        </mxCell>
        <mxCell id="sOHyvGYPSxtJgD_jjgVX-146" value="&lt;div&gt;Client&lt;/div&gt;Survey" style="ellipse;whiteSpace=wrap;html=1;aspect=fixed;" vertex="1" parent="1">
          <mxGeometry x="691" y="38" width="80" height="80" as="geometry" />
        </mxCell>
        <mxCell id="sOHyvGYPSxtJgD_jjgVX-149" value="&lt;div&gt;form&lt;/div&gt;" style="text;html=1;align=center;verticalAlign=middle;whiteSpace=wrap;rounded=0;" vertex="1" parent="1">
          <mxGeometry x="609" y="53" width="50" height="25" as="geometry" />
        </mxCell>
        <mxCell id="sOHyvGYPSxtJgD_jjgVX-151" value="record" style="text;html=1;align=center;verticalAlign=middle;whiteSpace=wrap;rounded=0;" vertex="1" parent="1">
          <mxGeometry x="680" y="128.5" width="50" height="25" as="geometry" />
        </mxCell>
        <mxCell id="sOHyvGYPSxtJgD_jjgVX-157" style="edgeStyle=orthogonalEdgeStyle;rounded=0;orthogonalLoop=1;jettySize=auto;html=1;entryX=0;entryY=0.5;entryDx=0;entryDy=0;" edge="1" parent="1" source="sOHyvGYPSxtJgD_jjgVX-152" target="sOHyvGYPSxtJgD_jjgVX-93">
          <mxGeometry relative="1" as="geometry">
            <Array as="points">
              <mxPoint x="620" y="930" />
              <mxPoint x="620" y="490" />
            </Array>
          </mxGeometry>
        </mxCell>
        <mxCell id="sOHyvGYPSxtJgD_jjgVX-152" value="Static Form" style="ellipse;whiteSpace=wrap;html=1;aspect=fixed;" vertex="1" parent="1">
          <mxGeometry x="282" y="890" width="80" height="80" as="geometry" />
        </mxCell>
        <mxCell id="sOHyvGYPSxtJgD_jjgVX-154" value="changes" style="text;html=1;align=center;verticalAlign=middle;whiteSpace=wrap;rounded=0;" vertex="1" parent="1">
          <mxGeometry x="148" y="937" width="83" height="10" as="geometry" />
        </mxCell>
        <mxCell id="sOHyvGYPSxtJgD_jjgVX-155" style="edgeStyle=orthogonalEdgeStyle;rounded=0;orthogonalLoop=1;jettySize=auto;html=1;entryX=0.98;entryY=0.372;entryDx=0;entryDy=0;entryPerimeter=0;" edge="1" parent="1">
          <mxGeometry relative="1" as="geometry">
            <mxPoint x="283.31906356161994" y="921.8125" as="sourcePoint" />
            <mxPoint x="156.39999999999986" y="921.7599999999998" as="targetPoint" />
            <Array as="points">
              <mxPoint x="220" y="922" />
            </Array>
          </mxGeometry>
        </mxCell>
        <mxCell id="sOHyvGYPSxtJgD_jjgVX-156" value="page" style="text;html=1;align=center;verticalAlign=middle;whiteSpace=wrap;rounded=0;" vertex="1" parent="1">
          <mxGeometry x="245" y="906" width="32" height="12" as="geometry" />
        </mxCell>
      </root>
    </mxGraphModel>
  </diagram>
</mxfile>
